<?xml version="1.0" encoding="UTF-8" standalone="no"?>
<!-- Created with Inkscape (http://www.inkscape.org/) -->

<svg
   version="1.1"
   id="svg840"
   width="20cm"
   height="20cm"
   viewBox="0 0 755.90551 755.9055"
   sodipodi:docname="LogoVector.svg"
   inkscape:version="1.3.1 (9b9bdc1480, 2023-11-25, custom)"
   xmlns:inkscape="http://www.inkscape.org/namespaces/inkscape"
   xmlns:sodipodi="http://sodipodi.sourceforge.net/DTD/sodipodi-0.dtd"
   xmlns:xlink="http://www.w3.org/1999/xlink"
   xmlns="http://www.w3.org/2000/svg"
   xmlns:svg="http://www.w3.org/2000/svg">
  <sodipodi:namedview
     id="namedview1"
     pagecolor="#ffffff"
     bordercolor="#000000"
     borderopacity="0.25"
     inkscape:showpageshadow="2"
     inkscape:pageopacity="0.0"
     inkscape:pagecheckerboard="0"
     inkscape:deskcolor="#d1d1d1"
     inkscape:zoom="0.31865158"
     inkscape:cx="87.870269"
     inkscape:cy="1161.1428"
     inkscape:window-width="1854"
     inkscape:window-height="1011"
     inkscape:window-x="0"
     inkscape:window-y="0"
     inkscape:window-maximized="1"
     inkscape:current-layer="svg840"
     inkscape:document-units="cm" />
  <defs
     id="defs844" />
  <text
     xml:space="preserve"
     style="font-style:normal;font-variant:normal;font-weight:normal;font-stretch:normal;font-size:50.6668px;font-family:'Noto Serif JP';-inkscape-font-specification:'Noto Serif JP';text-align:center;writing-mode:vertical-lr;text-anchor:middle;display:inline;fill:none;stroke:#000000;stroke-width:2"
     x="490.49802"
     y="472.78174"
     id="text106504"><tspan
       id="tspan106502"
       style="stroke-width:2"
       x="599.93719"
       y="363.34256" /></text>
  <g
     id="g1"
     transform="matrix(0.85370644,0,0,0.85370644,-339.07107,-360.89783)">
    <ellipse
       style="fill:#000000;stroke:#000000;stroke-width:2"
       id="path874"
       cx="820.44904"
       cy="588.34863"
       rx="9.4305153"
       ry="10.520863" />
    <ellipse
       style="fill:#000000;stroke:#000000;stroke-width:2"
       id="path874-3"
       cx="829.01721"
       cy="609.38641"
       rx="9.4305153"
       ry="10.520863" />
    <ellipse
       style="fill:#000000;stroke:#000000;stroke-width:2"
       id="path874-6"
       cx="828.05371"
       cy="567.9433"
       rx="9.4305153"
       ry="10.520863" />
    <ellipse
       style="fill:#000000;stroke:#000000;stroke-width:2"
       id="path874-7"
       cx="849.42053"
       cy="559.58728"
       rx="9.4305153"
       ry="10.520863" />
    <ellipse
       style="fill:#000000;stroke:#000000;stroke-width:2"
       id="path874-5"
       cx="868.85651"
       cy="567.22961"
       rx="9.4305153"
       ry="10.520863" />
    <ellipse
       style="fill:#000000;stroke:#000000;stroke-width:2"
       id="path874-35"
       cx="877.83508"
       cy="586.9173"
       rx="9.4305153"
       ry="10.520863" />
    <ellipse
       style="fill:#000000;stroke:#000000;stroke-width:2"
       id="path874-62"
       cx="869.1123"
       cy="608.38531"
       rx="9.4305153"
       ry="10.520863" />
    <path
       style="fill:#000000;stroke:#000000;stroke-width:2"
       d="m 843.11896,600.9801 c -6.35765,1.09047 -8.01868,-14.37882 -8.01868,-14.37882 0.90146,-4.72254 3.75923,-11.4565 7.6097,-12.7027 10.97885,-3.55325 25.80299,6.70025 17.68445,22.11275 -4.38747,8.32935 -6.40713,1.64147 -5.65342,13.71962 0.28611,4.58255 0.0113,24.63771 -5.36383,24.51644 -7.31482,-0.16505 -4.42269,-18.48808 -6.25822,-33.26729 z"
       id="path1103" />
    <path
       style="fill:#000000;stroke:#000000;stroke-width:2"
       d="m 808.16097,651.97205 c 0,0 -27.2707,3.70987 -36.98449,13.42368 -1.59798,1.59796 -9.62432,1.61083 -11.806,1.97444 -2.52036,0.42006 -5.44977,2.504 -6.51348,4.63576 -4.79278,9.60513 -2.12754,10.49912 3.02649,18.21504 1.63484,2.44746 3.63869,2.25709 6.02636,2.86109 10.10355,2.55583 12.99848,-2.9524 20.56796,-8.62951 16.77535,-12.58151 35.67003,-11.74002 52.96229,-3.07696 2.43723,1.22101 11.22644,6.60522 13.43837,7.71343 2.06544,1.03482 8.82168,-5.09989 10.32991,-6.6081 4.67198,-4.67201 28.57731,-8.40632 35.63384,-6.99501 4.90265,0.98053 9.58998,3.15335 14.45257,3.9643 8.8244,1.4717 10.82305,9.97699 18.72109,13.07463 17.95185,7.04078 25.06217,-17.59334 12.99893,-25.63549 -2.47237,-1.64827 -7.24407,-1.78351 -10.77214,-2.66553 -6.51288,-1.62822 -20.2972,-9.81489 -26.64129,-12.2006 -4.53891,-1.70686 -9.77518,4.92879 -11.74151,-2.99075 -2.1151,-8.51877 58.4231,-40.01674 26.55295,-58.37672 -0.93728,-0.53995 -6.43706,-1.33311 -6.43706,-1.33311 -6.08822,2.39319 -9.76173,6.19317 -14.19046,10.06776 -5.84111,5.11028 -12.21453,14.97398 -17.65641,20.41587 -6.71168,6.71166 -13.10521,12.97016 -20.64227,18.62296 -1.19932,0.89949 -8.8679,9.97757 -9.48533,10.0236 -1.17747,0.0878 -5.86703,-2.3745 -6.84922,-3.43371 -4.60656,-4.96792 -8.9176,-9.09847 -12.91199,-13.09285 -1.50179,-1.50179 -3.65896,-2.58238 -5.2035,-4.12691 -6.47268,-6.47268 -14.07716,-14.5556 -19.5867,-20.6661 -5.54637,-6.61078 -9.07989,-12.1514 -16.72563,-16.29737 0,0 -9.49176,-1.13349 -13.09355,1.481 -9.32227,6.76693 -7.42794,15.30868 -0.90345,24.008 1.65619,2.20826 8.83828,11.96785 12.81248,14.35237 4.3025,2.5815 9.40684,5.93378 12.40036,10.41821 1.65682,2.48199 2.98544,5.12624 5.01074,7.15551 0.93534,0.93716 3.16688,1.60296 3.63208,2.51413 0.28237,0.5531 0.14888,0.36359 -0.42194,1.20695 z"
       id="path2263" />
    <path
       style="fill:#000000;stroke:#000000;stroke-width:2"
       d="m 790.61121,702.71224 c 27.52014,16.39709 25.48743,43.0468 35.6561,73.8981 4.39362,13.33006 4.42628,18.53496 9.47636,31.81951 1.37185,3.60869 6.73304,40.1136 15.15526,38.46432 8.10134,-0.18141 18.23259,-56.36738 22.24309,-72.50415 2.68581,-10.80669 7.7413,-24.05495 10.26569,-35.60115 2.13241,-9.75341 4.13076,-14.46092 9.17779,-22.66537 6.69275,-10.87972 19.2339,-9.37867 15.78723,-16.49496 -4.44638,-9.18031 -17.27761,-15.07778 -27.11894,-15.31442 -27.79597,-0.66838 -26.41194,10.43811 -32.68565,10.36919 -7.50119,-0.0824 -3.09748,-9.95289 -25.99091,-9.02609 -13.03703,0.0544 -39.49406,10.97682 -31.96602,17.05502 z"
       id="path5627" />
    <ellipse
       style="fill:#000000;stroke:#000000;stroke-width:2"
       id="path874-2"
       cx="-882.59894"
       cy="-1153.8578"
       rx="9.4305153"
       ry="10.520863"
       transform="scale(-1)" />
    <ellipse
       style="fill:#000000;stroke:#000000;stroke-width:2"
       id="path874-3-8"
       cx="-874.03076"
       cy="-1132.8201"
       rx="9.4305153"
       ry="10.520863"
       transform="scale(-1)" />
    <ellipse
       style="fill:#000000;stroke:#000000;stroke-width:2"
       id="path874-6-9"
       cx="-874.99426"
       cy="-1174.2632"
       rx="9.4305153"
       ry="10.520863"
       transform="scale(-1)" />
    <ellipse
       style="fill:#000000;stroke:#000000;stroke-width:2"
       id="path874-7-7"
       cx="-853.62744"
       cy="-1182.6191"
       rx="9.4305153"
       ry="10.520863"
       transform="scale(-1)" />
    <ellipse
       style="fill:#000000;stroke:#000000;stroke-width:2"
       id="path874-5-3"
       cx="-834.19147"
       cy="-1174.9768"
       rx="9.4305153"
       ry="10.520863"
       transform="scale(-1)" />
    <ellipse
       style="fill:#000000;stroke:#000000;stroke-width:2"
       id="path874-35-6"
       cx="-825.21289"
       cy="-1155.2892"
       rx="9.4305153"
       ry="10.520863"
       transform="scale(-1)" />
    <ellipse
       style="fill:#000000;stroke:#000000;stroke-width:2"
       id="path874-62-1"
       cx="-833.93573"
       cy="-1133.8212"
       rx="9.4305153"
       ry="10.520863"
       transform="scale(-1)" />
    <path
       style="fill:#000000;stroke:#000000;stroke-width:2"
       d="m 859.92904,1141.2263 c 6.35765,-1.0904 8.01868,14.3789 8.01868,14.3789 -0.90146,4.7225 -3.75923,11.4565 -7.6097,12.7027 -10.97885,3.5532 -25.80299,-6.7003 -17.68445,-22.1128 4.38747,-8.3293 6.40713,-1.6415 5.65342,-13.7196 -0.28611,-4.5826 -0.0113,-24.6377 5.36383,-24.5164 7.31482,0.165 4.42269,18.488 6.25822,33.2672 z"
       id="path1103-2" />
    <path
       style="fill:#000000;stroke:#000000;stroke-width:2"
       d="m 894.88703,1090.2344 c 0,0 27.2707,-3.7099 36.98449,-13.4237 1.59798,-1.5979 9.62432,-1.6108 11.806,-1.9744 2.52036,-0.4201 5.44977,-2.504 6.51348,-4.6358 4.79278,-9.6051 2.12754,-10.4991 -3.02649,-18.215 -1.63484,-2.4475 -3.63869,-2.2571 -6.02636,-2.8611 -10.10355,-2.5558 -12.99848,2.9524 -20.56796,8.6295 -16.77535,12.5815 -35.67003,11.74 -52.96229,3.077 -2.43723,-1.221 -11.22644,-6.6053 -13.43837,-7.7135 -2.06544,-1.0348 -8.82168,5.0999 -10.32991,6.6081 -4.67198,4.672 -28.57731,8.4064 -35.63384,6.995 -4.90265,-0.9805 -9.58998,-3.1533 -14.45257,-3.9643 -8.8244,-1.4717 -10.82305,-9.9769 -18.72109,-13.0746 -17.95185,-7.0408 -25.06217,17.5934 -12.99893,25.6355 2.47237,1.6483 7.24407,1.7835 10.77214,2.6655 6.51288,1.6283 20.2972,9.8149 26.64129,12.2006 4.53891,1.7069 9.77518,-4.9288 11.74151,2.9908 2.1151,8.5187 -58.4231,40.0167 -26.55295,58.3767 0.93728,0.5399 6.43706,1.3331 6.43706,1.3331 6.08822,-2.3932 9.76173,-6.1932 14.19046,-10.0677 5.84111,-5.1103 12.21453,-14.974 17.65641,-20.4159 6.71168,-6.7117 13.10521,-12.9702 20.64227,-18.623 1.19932,-0.8995 8.8679,-9.9775 9.48533,-10.0236 1.17747,-0.088 5.86703,2.3745 6.84922,3.4337 4.60656,4.968 8.9176,9.0985 12.91199,13.0929 1.50179,1.5018 3.65896,2.5824 5.2035,4.1269 6.47268,6.4727 14.07716,14.5556 19.5867,20.6661 5.54637,6.6108 9.07989,12.1514 16.72563,16.2974 0,0 9.49176,1.1334 13.09355,-1.481 9.32227,-6.767 7.42794,-15.3087 0.90345,-24.008 -1.65619,-2.2083 -8.83828,-11.9679 -12.81248,-14.3524 -4.3025,-2.5815 -9.40684,-5.9338 -12.40036,-10.4182 -1.65682,-2.482 -2.98544,-5.1263 -5.01074,-7.1555 -0.93534,-0.9372 -3.16688,-1.603 -3.63208,-2.5142 -0.28237,-0.5531 -0.14888,-0.3635 0.42194,-1.2069 z"
       id="path2263-9" />
    <path
       style="fill:#000000;stroke:#000000;stroke-width:2"
       d="m 912.43679,1039.4942 c -27.52014,-16.3971 -25.48743,-43.04679 -35.6561,-73.89809 -4.39362,-13.33006 -4.42628,-18.53496 -9.47636,-31.81951 -1.37185,-3.60869 -6.73304,-40.1136 -15.15526,-38.46432 -8.10134,0.18141 -18.23259,56.36738 -22.24309,72.50415 -2.68581,10.80669 -7.7413,24.05495 -10.26569,35.60117 -2.13241,9.7534 -4.13076,14.4609 -9.17779,22.6653 -6.69275,10.8798 -19.2339,9.3787 -15.78723,16.495 4.44638,9.1803 17.27761,15.0778 27.11894,15.3144 27.79597,0.6684 26.41194,-10.4381 32.68565,-10.3692 7.50119,0.082 3.09748,9.9529 25.99091,9.0261 13.03703,-0.054 39.49406,-10.9768 31.96602,-17.055 z"
       id="path5627-3" />
    <ellipse
       style="fill:#000000;stroke:#000000;stroke-width:2"
       id="path874-1"
       cx="1150.4696"
       cy="-580.59094"
       rx="9.4305153"
       ry="10.520863"
       transform="rotate(59.789438)" />
    <ellipse
       style="fill:#000000;stroke:#000000;stroke-width:2"
       id="path874-3-2"
       cx="1159.0377"
       cy="-559.55316"
       rx="9.4305153"
       ry="10.520863"
       transform="rotate(59.789438)" />
    <ellipse
       style="fill:#000000;stroke:#000000;stroke-width:2"
       id="path874-6-7"
       cx="1158.0743"
       cy="-600.99628"
       rx="9.4305153"
       ry="10.520863"
       transform="rotate(59.789438)" />
    <ellipse
       style="fill:#000000;stroke:#000000;stroke-width:2"
       id="path874-7-0"
       cx="1179.4412"
       cy="-609.35229"
       rx="9.4305153"
       ry="10.520863"
       transform="rotate(59.789438)" />
    <ellipse
       style="fill:#000000;stroke:#000000;stroke-width:2"
       id="path874-5-9"
       cx="1198.8771"
       cy="-601.70996"
       rx="9.4305153"
       ry="10.520863"
       transform="rotate(59.789438)" />
    <ellipse
       style="fill:#000000;stroke:#000000;stroke-width:2"
       id="path874-35-3"
       cx="1207.8556"
       cy="-582.02228"
       rx="9.4305153"
       ry="10.520863"
       transform="rotate(59.789438)" />
    <ellipse
       style="fill:#000000;stroke:#000000;stroke-width:2"
       id="path874-62-6"
       cx="1199.1328"
       cy="-560.55432"
       rx="9.4305153"
       ry="10.520863"
       transform="rotate(59.789438)" />
    <path
       style="fill:#000000;stroke:#000000;stroke-width:2"
       d="m 1081.1199,728.02067 c -4.1414,-4.94547 8.3911,-14.16473 8.3911,-14.16473 4.5347,-1.59726 11.792,-2.51601 14.8065,0.18443 8.5949,7.6998 7.1933,25.66991 -10.211,26.40926 -9.4058,0.39959 -4.6425,-4.71097 -14.701,2.01785 -3.8162,2.5531 -21.2857,12.40698 -23.8856,7.70084 -3.538,-6.40439 13.7517,-13.12483 25.6,-22.14765 z"
       id="path1103-0" />
    <path
       style="fill:#000000;stroke:#000000;stroke-width:2"
       d="m 1019.4634,723.46869 c 0,0 -16.928,-21.70012 -30.21032,-25.20682 -2.18499,-0.57688 -6.2348,-7.50663 -7.6468,-9.20903 -1.6312,-1.96669 -4.90613,-3.44963 -7.28359,-3.29622 -10.71221,0.69127 -10.14369,3.44436 -14.21825,11.78087 -1.29243,2.64431 -0.11962,4.28021 0.55984,6.64752 2.87519,10.01734 9.09198,9.74746 17.80684,13.43227 19.31373,8.1662 28.09398,24.91806 29.30858,44.22079 0.1712,2.7206 -0.059,13.0253 0.096,15.49444 0.145,2.30562 8.8461,5.05739 10.9084,5.60186 6.3883,1.68659 21.6441,20.46611 23.9752,27.27438 1.6195,4.73017 2.1004,9.87419 3.8463,14.48441 3.1685,8.36642 -3.176,14.3733 -1.8788,22.75732 2.9485,19.05644 27.8146,12.80566 28.6946,-1.66581 0.1803,-2.96596 -2.1038,-7.15762 -3.1169,-10.65033 -1.87,-6.44761 -1.7312,-22.47912 -2.8618,-29.16201 -0.8088,-4.7813 -9.178,-5.96747 -3.3235,-11.65169 6.2975,-6.1143 63.979,30.3526 63.809,-6.42737 -0.01,-1.08167 -2.0869,-6.23359 -2.0869,-6.23359 -5.1317,-4.05712 -10.264,-5.31963 -15.8408,-7.19725 -7.3553,-2.4764 -19.0863,-3.02098 -26.5273,-4.98551 -9.1773,-2.42295 -17.8029,-4.79897 -26.4804,-8.46799 -1.3808,-0.58382 -13.0846,-2.64298 -13.4351,-3.15338 -0.6683,-0.97338 -0.9001,-6.26499 -0.479,-7.64675 1.9753,-6.48066 3.3756,-12.2846 4.8176,-17.74636 0.5421,-2.05349 0.3905,-4.46141 0.9481,-6.57335 2.3366,-8.85049 5.4953,-19.4893 8.0036,-27.32523 2.9221,-8.11947 5.9322,-13.96101 5.6679,-22.65448 0,0 -3.7965,-8.77296 -7.8682,-10.57 -10.5387,-4.65117 -16.9671,1.28391 -21.2019,11.29957 -1.075,2.5424 -5.8952,13.65986 -5.9561,18.29413 -0.066,5.01711 -0.3945,11.11498 -2.7636,15.9584 -1.3112,2.68068 -2.9278,5.15938 -3.6624,7.9307 -0.3392,1.27986 0.2083,3.54333 -0.3451,4.40383 -0.3358,0.52233 -0.2392,0.31161 -1.2553,0.24268 z"
       id="path2263-6" />
    <path
       style="fill:#000000;stroke:#000000;stroke-width:2"
       d="m 966.78398,733.83391 c -0.3225,32.03309 -24.37553,43.68604 -45.92,67.99735 -9.30882,10.5043 -13.79037,13.15152 -22.72954,24.20022 -2.42828,3.00135 -31.27753,26.0029 -25.61437,32.45136 4.23321,6.90975 57.88595,-12.60662 73.84905,-17.26051 10.69039,-3.11668 24.68312,-5.41406 35.93135,-9.04234 9.50171,-3.06492 14.57539,-3.70671 24.20513,-3.47346 12.7697,0.3093 17.7829,11.90244 22.1984,5.34312 5.6961,-8.46182 4.3362,-22.51783 -0.4112,-31.1416 -13.4088,-24.35709 -22.3104,-17.57248 -25.4076,-23.02879 -3.70328,-6.52385 7.0425,-7.68487 -5.27794,-27.00262 -6.60699,-11.23898 -29.35856,-28.60675 -30.82328,-19.04273 z"
       id="path5627-2" />
    <ellipse
       style="fill:#000000;stroke:#000000;stroke-width:2"
       id="path874-1-1"
       cx="307.11987"
       cy="-1455.2258"
       rx="9.4305153"
       ry="10.520863"
       transform="rotate(119.66401)" />
    <ellipse
       style="fill:#000000;stroke:#000000;stroke-width:2"
       id="path874-3-2-8"
       cx="315.68805"
       cy="-1434.1881"
       rx="9.4305153"
       ry="10.520863"
       transform="rotate(119.66401)" />
    <ellipse
       style="fill:#000000;stroke:#000000;stroke-width:2"
       id="path874-6-7-7"
       cx="314.72455"
       cy="-1475.6312"
       rx="9.4305153"
       ry="10.520863"
       transform="rotate(119.66401)" />
    <ellipse
       style="fill:#000000;stroke:#000000;stroke-width:2"
       id="path874-7-0-9"
       cx="336.09137"
       cy="-1483.9873"
       rx="9.4305153"
       ry="10.520863"
       transform="rotate(119.66401)" />
    <ellipse
       style="fill:#000000;stroke:#000000;stroke-width:2"
       id="path874-5-9-2"
       cx="355.52734"
       cy="-1476.3448"
       rx="9.4305153"
       ry="10.520863"
       transform="rotate(119.66401)" />
    <ellipse
       style="fill:#000000;stroke:#000000;stroke-width:2"
       id="path874-35-3-0"
       cx="364.50592"
       cy="-1456.6572"
       rx="9.4305153"
       ry="10.520863"
       transform="rotate(119.66401)" />
    <ellipse
       style="fill:#000000;stroke:#000000;stroke-width:2"
       id="path874-62-6-2"
       cx="355.78311"
       cy="-1435.1892"
       rx="9.4305153"
       ry="10.520863"
       transform="rotate(119.66401)" />
    <path
       style="fill:#000000;stroke:#000000;stroke-width:2"
       d="m 1090.3145,1000.527 c 2.1989,-6.06412 16.4629,0.1486 16.4629,0.1486 3.6575,3.1205 8.0945,8.9365 7.2718,12.8991 -2.346,11.2985 -18.5924,19.1053 -27.967,4.4228 -5.0663,-7.9347 1.7446,-6.3798 -9.1236,-11.7025 -4.1236,-2.0193 -21.4144,-12.18362 -18.6488,-16.79434 3.7637,-6.27447 18.254,5.30695 32.0047,11.02644 z"
       id="path1103-0-3" />
    <path
       style="fill:#000000;stroke:#000000;stroke-width:2"
       d="m 1063.3066,944.91395 c 0,0 10.2729,-25.53271 6.6397,-38.78093 -0.5977,-2.17943 3.3634,-9.16022 4.1272,-11.23594 0.8824,-2.39792 0.5213,-5.97479 -0.8046,-7.95412 -5.9743,-8.91837 -8.0701,-7.04486 -17.3256,-6.38503 -2.9359,0.20939 -3.7621,2.04477 -5.4687,3.82058 -7.2213,7.51449 -3.8676,12.75613 -2.6808,22.14323 2.6303,20.80358 -7.4521,36.80549 -23.538,47.54404 -2.2672,1.51351 -11.2957,6.48612 -13.3534,7.85968 -1.9214,1.28262 0.065,10.18953 0.6297,12.24654 1.7475,6.3719 -6.8387,28.9924 -11.55741,34.4257 -3.2784,3.7748 -7.48626,6.7725 -10.59749,10.5964 -5.64613,6.9396 -14.02591,4.4669 -20.62644,9.7968 -15.0026,12.1146 2.88401,30.4847 15.84242,23.9827 2.65588,-1.3327 5.13498,-5.4121 7.6475,-8.0412 4.63812,-4.8535 18.57392,-12.7796 23.78672,-17.1115 3.7295,-3.0993 0.555,-10.9334 8.4098,-8.7226 8.4491,2.3782 5.8579,70.5711 37.5846,51.9644 0.9331,-0.5472 4.3442,-4.9337 4.3442,-4.9337 0.9336,-6.4747 -0.5503,-11.5474 -1.7253,-17.3133 -1.5496,-7.6047 -6.9663,-18.0246 -9.0018,-25.4465 -2.5103,-9.1538 -4.7844,-17.8068 -5.9661,-27.15368 -0.1883,-1.48732 -4.2811,-12.64373 -4.0156,-13.20302 0.5065,-1.06662 4.967,-3.92296 6.3735,-4.2522 6.5967,-1.54416 12.3195,-3.24593 17.7672,-4.73994 2.0483,-0.56171 4.0549,-1.90137 6.1614,-2.4791 8.8278,-2.42098 19.6149,-5.02848 27.6514,-6.79178 8.4893,-1.54771 15.0526,-1.87604 22.4392,-6.46783 0,0 5.6825,-7.68684 5.1932,-12.11051 -1.2663,-11.44959 -9.6262,-14.03093 -20.4144,-12.66694 -2.7385,0.34621 -14.7736,1.75692 -18.8125,4.03015 -4.3725,2.461 -9.8117,5.23729 -15.1899,5.6191 -2.9767,0.21128 -5.9319,0.0571 -8.6976,0.81267 -1.2772,0.34885 -2.9602,1.95852 -3.9822,1.9118 -0.6203,-0.0302 -0.3896,-0.0506 -0.8399,-0.96397 z"
       id="path2263-6-7" />
    <path
       style="fill:#000000;stroke:#000000;stroke-width:2"
       d="m 1027.9018,904.55223 c -27.8682,15.79831 -50.01921,0.84272 -81.8598,-5.59 -13.75752,-2.77943 -18.29646,-5.32702 -32.3393,-7.51347 -3.81471,-0.59392 -38.18869,-14.00213 -40.92382,-5.86746 -3.85183,7.1294 39.95645,43.74002 51.99353,55.21123 8.06116,7.68216 17.0711,18.63186 25.85473,26.53977 7.41981,6.68001 10.52137,10.74625 15.15273,19.19233 6.1415,11.20013 -1.36959,21.35477 6.51983,21.88177 10.17774,0.6798 21.65265,-7.5511 26.7289,-15.98548 14.3373,-23.82233 4.0015,-28.11644 7.1663,-33.53383 3.784,-6.47731 10.1815,2.23431 20.7064,-18.11746 6.4049,-11.35537 10.0079,-39.75066 1.0005,-36.2174 z"
       id="path5627-2-5" />
    <ellipse
       style="fill:#000000;stroke:#000000;stroke-width:2"
       id="path874-1-3"
       cx="-1210.5425"
       cy="17.58506"
       rx="9.4305153"
       ry="10.520863"
       transform="rotate(-120.21056)" />
    <ellipse
       style="fill:#000000;stroke:#000000;stroke-width:2"
       id="path874-3-2-7"
       cx="-1201.9744"
       cy="38.622841"
       rx="9.4305153"
       ry="10.520863"
       transform="rotate(-120.21056)" />
    <ellipse
       style="fill:#000000;stroke:#000000;stroke-width:2"
       id="path874-6-7-4"
       cx="-1202.9379"
       cy="-2.820256"
       rx="9.4305153"
       ry="10.520863"
       transform="rotate(-120.21056)" />
    <ellipse
       style="fill:#000000;stroke:#000000;stroke-width:2"
       id="path874-7-0-5"
       cx="-1181.571"
       cy="-11.176295"
       rx="9.4305153"
       ry="10.520863"
       transform="rotate(-120.21056)" />
    <ellipse
       style="fill:#000000;stroke:#000000;stroke-width:2"
       id="path874-5-9-25"
       cx="-1162.135"
       cy="-3.5339491"
       rx="9.4305153"
       ry="10.520863"
       transform="rotate(-120.21056)" />
    <ellipse
       style="fill:#000000;stroke:#000000;stroke-width:2"
       id="path874-35-3-4"
       cx="-1153.1565"
       cy="16.153753"
       rx="9.4305153"
       ry="10.520863"
       transform="rotate(-120.21056)" />
    <ellipse
       style="fill:#000000;stroke:#000000;stroke-width:2"
       id="path874-62-6-7"
       cx="-1161.8793"
       cy="37.621731"
       rx="9.4305153"
       ry="10.520863"
       transform="rotate(-120.21056)" />
    <path
       style="fill:#000000;stroke:#000000;stroke-width:2"
       d="m 623.82542,1011.3339 c 4.1414,4.9455 -8.39109,14.1647 -8.39109,14.1647 -4.53472,1.5973 -11.79207,2.516 -14.80649,-0.1844 -8.59498,-7.6998 -7.19329,-25.66992 10.21099,-26.40927 9.40576,-0.39959 4.64247,4.71097 14.70094,-2.01785 3.8162,-2.5531 21.28576,-12.40698 23.88564,-7.70084 3.53803,6.40439 -13.75167,13.12486 -25.59999,22.14766 z"
       id="path1103-0-4" />
    <path
       style="fill:#000000;stroke:#000000;stroke-width:2"
       d="m 685.48188,1015.8859 c 0,0 16.92805,21.7001 30.21033,25.2068 2.185,0.5769 6.23481,7.5066 7.64681,9.209 1.6312,1.9667 4.90612,3.4497 7.28359,3.2962 10.71221,-0.6912 10.14368,-3.4443 14.21824,-11.7808 1.29244,-2.6443 0.11963,-4.2802 -0.55983,-6.6475 -2.8752,-10.0174 -9.09198,-9.7475 -17.80685,-13.4323 -19.31372,-8.1662 -28.09393,-24.91808 -29.30857,-44.22081 -0.17119,-2.7206 0.0592,-13.0253 -0.0961,-15.49444 -0.14501,-2.30562 -8.84612,-5.05739 -10.9084,-5.60186 -6.38831,-1.68659 -21.6441,-20.46611 -23.97517,-27.27438 -1.61955,-4.73017 -2.10041,-9.8742 -3.84636,-14.48441 -3.16844,-8.36642 3.176,-14.3733 1.8788,-22.75732 -2.94848,-19.05644 -27.81461,-12.80567 -28.69452,1.6658 -0.18036,2.96596 2.10378,7.15763 3.11681,10.65034 1.87007,6.4476 1.73128,22.47912 2.86181,29.16201 0.80885,4.7813 9.17804,5.96747 3.32353,11.65169 -6.29749,6.1143 -63.97904,-30.35261 -63.80901,6.42736 0.005,1.08168 2.08695,6.23359 2.08695,6.23359 5.13162,4.05712 10.26392,5.31964 15.84072,7.19726 7.35534,2.47639 19.08634,3.02098 26.52736,4.98551 9.17728,2.42295 17.80285,4.79897 26.4804,8.46798 1.38079,0.58383 13.08458,2.64299 13.43503,3.15339 0.66835,0.97337 0.90017,6.26499 0.47903,7.64675 -1.97525,6.48066 -3.37558,12.28464 -4.81756,17.74634 -0.54214,2.0535 -0.39053,4.4614 -0.9481,6.5734 -2.33666,8.8505 -5.49535,19.4893 -8.00366,27.3252 -2.92209,8.1195 -5.9322,13.961 -5.6679,22.6545 0,0 3.79651,8.7729 7.86826,10.57 10.53863,4.6511 16.96707,-1.2839 21.20187,-11.2996 1.07498,-2.5424 5.89517,-13.6599 5.95609,-18.2941 0.066,-5.0171 0.39454,-11.115 2.76363,-15.9584 1.31121,-2.6807 2.92779,-5.1594 3.66236,-7.9307 0.33923,-1.2799 -0.20826,-3.5434 0.34508,-4.4039 0.3359,-0.5223 0.2393,-0.3116 1.25534,-0.2426 z"
       id="path2263-6-4" />
    <path
       style="fill:#000000;stroke:#000000;stroke-width:2"
       d="m 738.16132,1005.5207 c 0.3225,-32.03314 24.37553,-43.68609 45.92001,-67.9974 9.30881,-10.5043 13.79036,-13.15152 22.72953,-24.20022 2.42828,-3.00135 31.27753,-26.0029 25.61437,-32.45136 -4.2332,-6.90974 -57.88594,12.60662 -73.84905,17.26051 -10.69039,3.11668 -24.68312,5.41406 -35.93135,9.04234 -9.50171,3.06492 -14.57539,3.70671 -24.20508,3.47346 -12.76972,-0.3093 -17.78298,-11.90244 -22.19847,-5.34312 -5.69612,8.46182 -4.33621,22.51783 0.41124,31.1416 13.40876,24.35709 22.31038,17.57248 25.40762,23.02879 3.70324,6.52385 -7.04252,7.68487 5.2779,27.00262 6.60699,11.23898 29.35856,28.60678 30.82328,19.04278 z"
       id="path5627-2-3" />
    <ellipse
       style="fill:#000000;stroke:#000000;stroke-width:2"
       id="path874-1-1-7"
       cx="-363.97882"
       cy="888.87299"
       rx="9.4305153"
       ry="10.520863"
       transform="rotate(-60.33599)" />
    <ellipse
       style="fill:#000000;stroke:#000000;stroke-width:2"
       id="path874-3-2-8-8"
       cx="-355.41068"
       cy="909.91077"
       rx="9.4305153"
       ry="10.520863"
       transform="rotate(-60.33599)" />
    <ellipse
       style="fill:#000000;stroke:#000000;stroke-width:2"
       id="path874-6-7-7-6"
       cx="-356.37415"
       cy="868.46771"
       rx="9.4305153"
       ry="10.520863"
       transform="rotate(-60.33599)" />
    <ellipse
       style="fill:#000000;stroke:#000000;stroke-width:2"
       id="path874-7-0-9-8"
       cx="-335.00732"
       cy="860.11163"
       rx="9.4305153"
       ry="10.520863"
       transform="rotate(-60.33599)" />
    <ellipse
       style="fill:#000000;stroke:#000000;stroke-width:2"
       id="path874-5-9-2-8"
       cx="-315.57138"
       cy="867.75397"
       rx="9.4305153"
       ry="10.520863"
       transform="rotate(-60.33599)" />
    <ellipse
       style="fill:#000000;stroke:#000000;stroke-width:2"
       id="path874-35-3-0-4"
       cx="-306.5928"
       cy="887.44171"
       rx="9.4305153"
       ry="10.520863"
       transform="rotate(-60.33599)" />
    <ellipse
       style="fill:#000000;stroke:#000000;stroke-width:2"
       id="path874-62-6-2-3"
       cx="-315.31558"
       cy="908.90967"
       rx="9.4305153"
       ry="10.520863"
       transform="rotate(-60.33599)" />
    <path
       style="fill:#000000;stroke:#000000;stroke-width:2"
       d="m 614.43741,742.74409 c -2.19893,6.06412 -16.46293,-0.14849 -16.46293,-0.14849 -3.65747,-3.12056 -8.09454,-8.93653 -7.27177,-12.89913 2.346,-11.29853 18.59236,-19.10527 27.96697,-4.42288 5.06631,7.93476 -1.74463,6.37981 9.12361,11.70251 4.12358,2.01935 21.41437,12.18367 18.64875,16.79437 -3.76362,6.27447 -18.25393,-5.30693 -32.00463,-11.02638 z"
       id="path1103-0-3-1" />
    <path
       style="fill:#000000;stroke:#000000;stroke-width:2"
       d="m 641.44531,798.35715 c 0,0 -10.27295,25.53273 -6.63969,38.78095 0.59768,2.1794 -3.36348,9.1602 -4.12727,11.23591 -0.88235,2.39794 -0.52132,5.9748 0.80461,7.95414 5.97429,8.91835 8.07018,7.04486 17.32567,6.38501 2.93581,-0.2093 3.76211,-2.04475 5.46865,-3.82057 7.22124,-7.51449 3.86765,-12.75612 2.68079,-22.14323 -2.63026,-20.80357 7.45216,-36.8055 23.53802,-47.54402 2.26721,-1.51351 11.29568,-6.48612 13.35336,-7.85969 1.92141,-1.2826 -0.0655,-10.18954 -0.62966,-12.24653 -1.74747,-6.37192 6.83867,-28.99244 11.55739,-34.42568 3.27841,-3.77485 7.48629,-6.77251 10.59751,-10.59647 5.64614,-6.93954 14.0259,-4.46688 20.62642,-9.79676 15.00263,-12.11455 -2.88401,-30.48475 -15.84243,-23.98265 -2.65586,1.3326 -5.13495,5.41199 -7.64747,8.04116 -4.63814,4.8535 -18.57392,12.77959 -23.78673,17.11152 -3.72953,3.0993 -0.55503,10.93339 -8.40982,8.72254 -8.44911,-2.37815 -5.8579,-70.57112 -37.58462,-51.96439 -0.93305,0.54722 -4.34418,4.93367 -4.34418,4.93367 -0.93359,6.47473 0.5503,11.54746 1.72526,17.31336 1.5497,7.60473 6.9664,18.02454 9.00183,25.44648 2.51035,9.15375 4.78439,17.80677 5.96617,27.15369 0.18804,1.48731 4.28109,12.64372 4.01551,13.20301 -0.50645,1.06661 -4.96697,3.92295 -6.37346,4.25219 -6.59669,1.54416 -12.31949,3.24594 -17.76725,4.73996 -2.04822,0.56172 -4.05481,1.90138 -6.16133,2.47909 -8.8278,2.42097 -19.61494,5.02849 -27.65136,6.79179 -8.48936,1.54772 -15.05263,1.87602 -22.43921,6.46783 0,0 -5.68253,7.68682 -5.19326,12.11051 1.26636,11.44957 9.62617,14.03092 20.41444,12.66692 2.73852,-0.34624 14.77355,-1.75691 18.81245,-4.03014 4.37253,-2.461 9.81168,-5.2373 15.18992,-5.61909 2.97669,-0.21131 5.93194,-0.0571 8.69761,-0.81269 1.27725,-0.34894 2.96021,-1.95851 3.9822,-1.9118 0.62036,0.0284 0.38962,0.0506 0.83994,0.96398 z"
       id="path2263-6-7-4" />
    <path
       style="fill:#000000;stroke:#000000;stroke-width:2"
       d="m 676.85002,838.71886 c 27.86821,-15.79829 50.01926,-0.84269 81.85987,5.59003 13.75752,2.77941 18.29644,5.327 32.3393,7.51346 3.8147,0.59393 38.18868,14.00212 40.92383,5.86744 3.85181,-7.12938 -39.95648,-43.74002 -51.99356,-55.2112 -8.06115,-7.68219 -17.0711,-18.63186 -25.85472,-26.53976 -7.4198,-6.68004 -10.52135,-10.7463 -15.15271,-19.19236 -6.14152,-11.20013 1.36958,-21.35478 -6.51987,-21.88178 -10.17773,-0.67979 -21.65264,7.55107 -26.72886,15.9855 -14.33736,23.82232 -4.00149,28.11642 -7.16632,33.53381 -3.78403,6.47733 -10.18147,-2.23429 -20.70639,18.11748 -6.4049,11.35536 -10.0079,39.75063 -1.00057,36.21738 z"
       id="path5627-2-5-9" />
    <ellipse
       style="fill:#000000;stroke:#000000;stroke-width:2.42689"
       id="path9391"
       cx="483.87936"
       cy="869.98578"
       rx="16.736256"
       ry="17.363434" />
    <ellipse
       style="fill:#000000;stroke:#000000;stroke-width:2.42689"
       id="path9391-2"
       cx="1212.0641"
       cy="866.474"
       rx="16.736256"
       ry="17.363434" />
    <ellipse
       style="display:inline;fill:none;stroke:none;stroke-width:4.48649"
       id="path9544"
       cx="908.0246"
       cy="-821.99506"
       rx="340.35114"
       ry="348.6864"
       transform="matrix(0.03643955,0.99933586,-0.99940026,0.03462821,0,0)" />
    <g
       id="layer5"
       style="display:inline;fill:#000000"
       transform="matrix(3.7795276,0,0,3.7795276,454.8377,327.68225)">
      <text
         xml:space="preserve"
         style="font-style:normal;font-variant:normal;font-weight:normal;font-stretch:normal;font-size:50.6668px;font-family:'Noto Serif JP';-inkscape-font-specification:'Noto Serif JP';text-align:center;letter-spacing:-0.12px;word-spacing:5.60999px;text-anchor:middle;display:inline;fill:#000000;stroke:none;stroke-width:2"
         id="text56315"
         transform="matrix(0.26641708,0,0,0.26831433,-122.5991,-89.788017)"><textPath
           xlink:href="#path9544"
           startOffset="50%"
           id="textPath59238"
           style="fill:#000000;stroke-width:2"><tspan
             id="tspan56313"
             style="font-size:50.6668px;fill:#000000;stroke-width:2"
             dx="3.5999999"
             dy="0.99000001"
             rotate="358.20001 358.20001 358.20001 358.20001 358.20001 358.20001 358.20001 358.20001 358.20001 358.20001 358.20001 358.20001 358.20001 358.20001 358.20001 358.20001 358.20001 358.20001 358.20001 358.20001 358.20001 358.20001 358.20001 358.20001 358.20001 358.20001 358.20001 358.20001 358.20001 358.20001 0">JARDÍN ETNOBIOLÓGICO DE OAXACA</tspan></textPath></text>
    </g>
    <ellipse
       style="display:inline;fill:none;stroke:none;stroke-width:2.50169"
       id="path122066"
       cx="902.24231"
       cy="-828.22852"
       rx="358.88202"
       ry="365.36966"
       transform="matrix(0.02724519,0.99962878,-0.99969134,0.02484409,0,0)" />
    <ellipse
       style="display:inline;fill:none;stroke:none;stroke-width:2.88218"
       id="path152055-3"
       cx="-882.10681"
       cy="-854.20453"
       rx="370.66928"
       ry="377.42725"
       transform="matrix(0.00326255,-0.99999468,-0.99996731,0.00808625,0,0)" />
    <text
       xml:space="preserve"
       style="font-style:normal;font-variant:normal;font-weight:normal;font-stretch:normal;font-size:49.3334px;font-family:'Noto Serif JP';-inkscape-font-specification:'Noto Serif JP';text-align:center;letter-spacing:4.85px;writing-mode:lr-tb;direction:ltr;text-anchor:middle;display:inline;fill:#000000;stroke:none;stroke-width:2"
       id="text188019"
       transform="matrix(1.0079887,0,0,1.0068864,-3.7966735,-8.9412963)"><textPath
         xlink:href="#path152055-3"
         startOffset="50%"
         id="textPath193487"
         style="fill:#000000;stroke-width:2"><tspan
           id="tspan188017"
           style="writing-mode:lr-tb;fill:#000000;stroke:none;stroke-width:2">CENTRO CULTURAL SANTO DOMINGO</tspan></textPath></text>
  </g>
</svg>
